<?xml version="1.0" encoding="UTF-8" ?>
<!DOCTYPE svg PUBLIC "-//W3C//DTD SVG 1.1//EN" "http://www.w3.org/Graphics/SVG/1.1/DTD/svg11.dtd">
<svg width="160pt" height="160pt" viewBox="0 0 160 160" version="1.1" xmlns="http://www.w3.org/2000/svg">
<path fill="#ffffff" d=" M 0.00 0.00 L 68.64 0.00 C 63.06 2.15 57.08 3.00 51.53 5.23 C 28.84 13.74 10.53 33.16 3.58 56.40 C 2.41 60.41 1.59 64.53 0.00 68.41 L 0.00 0.00 Z" />
<path fill="#18140f" d=" M 68.64 0.00 L 90.87 0.00 C 95.49 1.65 100.34 2.50 105.01 4.01 C 123.02 9.85 138.71 22.41 148.47 38.62 C 154.95 49.19 158.62 61.33 160.00 73.61 L 160.00 90.81 C 158.45 95.20 157.60 99.79 156.23 104.23 C 150.52 122.58 137.81 138.59 121.36 148.47 C 110.81 154.97 98.66 158.60 86.40 160.00 L 68.41 160.00 C 63.11 157.85 57.38 157.05 52.05 154.97 C 29.13 146.55 10.60 127.03 3.58 103.61 C 2.31 99.32 1.44 94.91 0.00 90.66 L 0.00 68.41 C 1.59 64.53 2.41 60.41 3.58 56.40 C 10.53 33.16 28.84 13.74 51.53 5.23 C 57.08 3.00 63.06 2.15 68.64 0.00 Z" />
<path fill="#ffffff" d=" M 90.87 0.00 L 160.00 0.00 L 160.00 73.61 C 158.62 61.33 154.95 49.19 148.47 38.62 C 138.71 22.41 123.02 9.85 105.01 4.01 C 100.34 2.50 95.49 1.65 90.87 0.00 Z" />
<path fill="#ffffff" d=" M 40.73 37.73 C 43.93 36.09 48.02 35.85 51.14 37.81 C 54.16 39.37 56.26 42.13 58.63 44.48 C 73.91 34.88 94.54 34.62 109.98 43.99 C 115.18 47.24 120.72 50.61 123.88 56.06 C 128.81 64.11 131.79 73.56 131.45 83.05 C 130.63 96.05 123.88 108.63 113.23 116.20 C 106.46 120.69 98.01 122.54 90.00 121.12 C 84.40 120.09 79.22 116.30 77.14 110.91 C 75.72 107.18 75.15 103.04 75.75 99.09 C 79.07 91.94 88.20 88.92 95.38 91.64 C 99.81 93.59 103.28 98.65 101.54 103.56 C 99.27 106.43 95.87 108.19 93.82 111.31 C 91.65 111.41 89.08 110.92 88.16 108.66 C 87.87 106.82 87.82 104.62 89.35 103.28 C 91.10 101.40 93.85 102.67 95.99 102.95 C 96.60 101.46 98.47 99.90 97.04 98.28 C 92.87 92.93 83.73 95.18 81.05 101.00 C 78.55 105.11 81.06 109.93 83.92 113.09 C 87.08 116.58 92.20 117.17 96.60 116.34 C 105.91 114.05 113.51 106.36 116.09 97.18 C 117.73 91.55 119.76 84.91 116.41 79.51 C 114.06 75.46 108.85 74.64 104.57 74.78 C 105.95 78.75 110.25 80.92 111.06 85.17 C 111.63 88.34 110.51 93.38 106.28 92.28 C 105.50 89.61 104.84 86.88 103.65 84.37 C 101.03 82.47 97.51 83.42 94.52 82.67 C 95.99 81.20 97.80 80.15 99.60 79.14 C 99.36 78.41 98.88 76.96 98.64 76.23 C 93.39 76.67 88.10 77.00 82.84 76.46 C 81.21 78.52 79.90 80.78 78.63 83.07 C 79.44 85.22 81.13 87.35 80.67 89.76 C 80.22 92.04 77.71 92.53 76.01 93.57 C 75.04 92.86 74.00 92.28 72.90 91.81 C 73.42 89.61 73.83 87.38 74.42 85.20 C 71.44 85.28 68.44 85.59 65.48 85.09 C 69.59 83.16 75.84 81.86 76.18 76.32 C 72.98 76.04 69.76 75.90 66.60 75.31 C 64.80 74.82 63.29 76.20 61.72 76.83 C 55.07 80.38 47.00 81.46 39.75 79.24 C 34.78 77.29 30.59 73.73 27.19 69.67 C 30.83 65.68 36.52 66.86 41.31 66.54 C 45.01 65.80 48.06 69.17 51.75 68.68 C 53.48 68.54 54.35 66.97 55.21 65.69 C 53.18 65.53 51.13 65.51 49.13 65.10 C 41.19 62.79 32.25 63.43 24.80 67.09 C 22.79 68.11 20.90 65.86 20.64 64.01 C 21.93 59.26 23.81 54.63 26.46 50.47 C 28.57 47.56 27.88 43.28 30.95 40.97 C 33.49 38.19 37.66 39.44 40.73 37.73 Z" />
<path fill="#18140f" d=" M 44.45 41.55 C 49.90 40.35 55.40 45.45 54.34 51.00 C 53.94 57.12 45.91 60.36 41.12 56.80 C 35.26 53.04 37.20 42.25 44.45 41.55 Z" />
<path fill="#ffffff" d=" M 44.38 49.04 C 45.08 46.77 47.39 44.87 49.81 45.94 C 52.43 46.45 52.45 50.24 50.31 51.41 C 49.04 51.63 47.75 51.65 46.47 51.73 C 45.88 50.74 45.18 49.85 44.38 49.04 Z" />
<path fill="#ffffff" d=" M 0.00 90.66 C 1.44 94.91 2.31 99.32 3.58 103.61 C 10.60 127.03 29.13 146.55 52.05 154.97 C 57.38 157.05 63.11 157.85 68.41 160.00 L 0.00 160.00 L 0.00 90.66 Z" />
<path fill="#ffffff" d=" M 156.23 104.23 C 157.60 99.79 158.45 95.20 160.00 90.81 L 160.00 160.00 L 86.40 160.00 C 98.66 158.60 110.81 154.97 121.36 148.47 C 137.81 138.59 150.52 122.58 156.23 104.23 Z" />
</svg>
